<svg xmlns="http://www.w3.org/2000/svg" width="162" height="56" viewBox="0 0 162 56" fill="none">
  <g clip-path="url(#clip0_18_2228)">
    <path d="M7.09968 22.5376C7.09968 24.5049 5.51807 26.0859 3.54984 26.0859C1.58161 26.0859 0 24.5049 0 22.5376C0 20.5702 1.58161 18.9893 3.54984 18.9893C5.51807 18.9893 7.09968 20.5702 7.09968 22.5376Z" fill="#ED2124"/>
    <path d="M16.3088 21.2902H18.1716C19.3841 21.2902 20.544 20.2187 20.544 18.1459C20.544 16.1785 19.4017 15.0543 18.1716 15.0543H16.3088V21.2902ZM16.3088 10.5399H17.9255C19.2787 10.5399 20.0344 9.32783 20.0344 7.9577C20.0344 6.51729 19.2787 5.30525 17.9255 5.30525H16.3088V10.5399ZM9.64844 0.509766H19.718C24.4805 0.509766 26.7123 3.05682 26.7123 6.88618C26.7123 9.60889 25.5349 12.0505 22.7055 12.6127V12.6829C26.0796 12.9991 27.4328 15.8799 27.4328 18.5324C27.4328 22.9765 25.2888 26.0857 19.718 26.0857H9.64844V0.509766Z" fill="#121212"/>
    <path d="M36.3947 0.509766V18.9715C36.3947 21.4483 37.1504 22.0982 38.3981 22.0982C39.6458 22.0982 40.4015 21.4483 40.4015 18.9715V0.509766H47.0794V17.2852C47.0794 24.4521 43.9865 26.5951 38.3981 26.5951C32.8097 26.5951 29.7168 24.4521 29.7168 17.2852V0.509766H36.3947Z" fill="#121212"/>
    <path d="M56.6213 21.2902H57.9569C60.5402 21.2902 60.8565 20.2187 60.8565 13.2977C60.8565 6.37677 60.5402 5.30525 57.9569 5.30525H56.6213V21.2902ZM49.9434 0.509766H59.6263C67.3411 0.509766 67.7277 6.60512 67.7277 13.2977C67.7277 19.9903 67.3411 26.0857 59.6263 26.0857H49.9434V0.509766Z" fill="#121212"/>
    <path d="M78.3078 5.72683H78.2375L76.4098 16.5825H80.1354L78.3078 5.72683ZM74.0726 0.509766H82.4551L88.6937 26.1032H81.594L80.9086 21.6239H75.6015L74.9161 26.1032H67.8164L74.0726 0.509766Z" fill="#121212"/>
    <path d="M96.9533 11.5411H98.201C99.8881 11.5411 100.784 10.575 100.784 8.41441C100.784 6.25381 99.8881 5.30525 98.201 5.30525H96.9533V11.5411ZM90.293 0.509766H100.292C105.389 0.509766 107.673 3.91755 107.673 8.39684C107.673 13.6315 104.703 16.3542 99.2906 16.3542H96.9533V26.1032H90.293V0.509766Z" fill="#121212"/>
    <path d="M109.078 0.509766H124.244V5.95519H115.738V10.3291H123.699V15.5462H115.738V20.6403H124.56V26.0857H109.078V0.509766Z" fill="#121212"/>
    <path d="M136.968 7.88706V7.27226C136.968 5.76159 136.353 4.51442 135.07 4.51442C133.629 4.51442 132.996 5.62107 132.996 6.76285C132.996 11.8218 143.892 9.34503 143.892 18.6901C143.892 24.1355 140.693 26.5772 134.824 26.5772C129.306 26.5772 126.213 24.68 126.213 19.3751V18.4793H132.662V19.0941C132.662 21.2723 133.559 22.0627 134.841 22.0627C136.212 22.0627 137.003 20.9912 137.003 19.5859C137.003 14.527 126.529 17.0389 126.529 7.97489C126.529 2.81053 129.288 -0.0175781 134.912 -0.0175781C140.535 -0.0175781 143.189 2.38895 143.189 7.8695H136.95L136.968 7.88706Z" fill="#121212"/>
    <path d="M149.637 6.16598H144.611V0.509766H161.324V6.16598H156.298V26.0857H149.637V6.16598Z" fill="#121212"/>
    <path d="M20.1222 37.2923V36.6775C20.1222 35.1669 19.5071 33.9197 18.2242 33.9197C16.7832 33.9197 16.1505 35.0263 16.1505 36.1681C16.1505 41.2271 27.0461 38.7503 27.0461 48.0953C27.0461 53.5408 23.8477 55.9824 17.9782 55.9824C12.4601 55.9824 9.36719 54.0853 9.36719 48.7804V47.8846H15.8167V48.4994C15.8167 50.6775 16.7129 51.468 17.9958 51.468C19.3665 51.468 20.1573 50.3965 20.1573 48.9912C20.1573 43.9322 9.68351 46.4442 9.68351 37.3802C9.68351 32.2158 12.4425 29.3877 18.0661 29.3877C23.6896 29.3877 26.3432 31.7942 26.3432 37.2748H20.1046L20.1222 37.2923Z" fill="#121212"/>
    <path d="M39.628 37.6964C39.628 34.798 39.0832 33.9373 37.8003 33.9373C35.7618 33.9373 35.5509 35.7993 35.5509 42.7202C35.5509 49.6412 35.7618 51.5032 37.8003 51.5032C39.4522 51.5032 39.8037 50.0628 39.8037 45.2321H46.2532V47.1293C46.2532 54.2961 42.0531 56.0176 37.7827 56.0176C30.2964 56.0176 28.6445 52.2585 28.6445 42.7202C28.6445 33.1819 30.8588 29.4229 37.7827 29.4229C43.8104 29.4229 46.0598 32.5847 46.0598 37.5207V39.1368H39.6104V37.6964H39.628Z" fill="#121212"/>
    <path d="M48.6602 29.915H55.3205V39.2952H59.4151V29.915H66.0755V55.5085H59.4151V44.969H55.3205V55.5085H48.6602V29.915Z" fill="#121212"/>
    <path d="M77.6226 51.4856C79.6611 51.4856 79.872 49.6236 79.872 42.7026C79.872 35.7817 79.6611 33.9197 77.6226 33.9197C75.5841 33.9197 75.3732 35.7817 75.3732 42.7026C75.3732 49.6236 75.5841 51.4856 77.6226 51.4856ZM77.6226 29.4053C84.4411 29.4053 86.7608 33.1292 86.7608 42.7026C86.7608 52.276 84.4235 56 77.6226 56C70.8216 56 68.4844 52.276 68.4844 42.7026C68.4844 33.1292 70.8216 29.4053 77.6226 29.4053Z" fill="#121212"/>
    <path d="M97.5679 51.4856C99.6064 51.4856 99.8349 49.6236 99.8349 42.7026C99.8349 35.7817 99.624 33.9197 97.5679 33.9197C95.5118 33.9197 95.3009 35.7817 95.3009 42.7026C95.3009 49.6236 95.5118 51.4856 97.5679 51.4856ZM97.5679 29.4053C104.386 29.4053 106.706 33.1292 106.706 42.7026C106.706 52.276 104.369 56 97.5679 56C90.767 56 88.4297 52.276 88.4297 42.7026C88.4297 33.1292 90.767 29.4053 97.5679 29.4053Z" fill="#121212"/>
    <path d="M109.113 29.915H115.791V50.0455H123.998V55.5085H109.113V29.915Z" fill="#121212"/>
  </g>
  <defs>
    <clipPath id="clip0_18_2228">
      <rect width="161.325" height="56" fill="white"/>
    </clipPath>
  </defs>
</svg>
